<svg width="24px" height="24px" viewBox="0 0 24 24">
    <path d="M12,2 C6.5,2 2,6.5 2,12 C2,17.5 6.5,22 12,22 C17.5,22 22,17.5 22,12 C22,6.5 17.5,2 12,2 L12,2 Z M12,4 C16.4,4 20,7.6 20,12 C20,16.4 16.4,20 12,20 C7.6,20 4,16.4 4,12 C4,7.6 7.6,4 12,4 L12,4 Z M12.5,4.90625 L12.5,6 C12.8,6 13.10625,6.09375 13.40625,6.09375 L13.59375,5.09375 C13.29375,4.99375 12.9,5.00625 12.5,4.90625 L12.5,4.90625 Z M10.5,5.09375 C10.1,5.29375 9.70625,5.4 9.40625,5.5 L9.8125,6.40625 L10.6875,6.09375 L10.5,5.09375 L10.5,5.09375 Z M15.28125,5.8125 L12.21875,10.03125 C12.146156,10.023267 12.074721,10 12,10 C10.895431,10 10,10.895431 10,12 C10,13.104569 10.895431,14 12,14 C13.104569,14 14,13.104569 14,12 C14,11.723858 13.944956,11.458027 13.84375,11.21875 C13.840205,11.210368 13.847406,11.195823 13.84375,11.1875 L16.90625,7 L15.28125,5.8125 L15.28125,5.8125 Z M7.59375,6.59375 C7.29375,6.79375 7.0125,7.1125 6.8125,7.3125 L7.5,8 C7.7,7.8 7.9875,7.60625 8.1875,7.40625 L7.59375,6.59375 L7.59375,6.59375 Z M17.90625,8.3125 L17.09375,8.8125 C17.29375,9.1125 17.4,9.29375 17.5,9.59375 L18.40625,9.1875 C18.30625,8.8875 18.10625,8.6125 17.90625,8.3125 L17.90625,8.3125 Z M5.59375,9.09375 C5.49375,9.39375 5.2875,9.79375 5.1875,10.09375 L6.1875,10.40625 L6.5,9.5 L5.59375,9.09375 L5.59375,9.09375 Z M19,11.3125 L18,11.40625 L18,12 L18,12.3125 L19,12.3125 L19,12 L19,11.3125 L19,11.3125 Z M5,12.1875 C5,12.5875 5.09375,12.9125 5.09375,13.3125 L6.09375,13.09375 C6.09375,12.79375 6,12.4875 6,12.1875 L5,12.1875 L5,12.1875 Z M17.6875,14.09375 C17.4875,14.39375 17.3875,14.70625 17.1875,14.90625 L18.09375,15.40625 C18.29375,15.10625 18.39375,14.80625 18.59375,14.40625 L17.6875,14.09375 L17.6875,14.09375 Z M6.6875,14.90625 L5.90625,15.40625 C6.00625,15.70625 6.20625,16.0125 6.40625,16.3125 L7.1875,15.6875 C6.9875,15.4875 6.7875,15.20625 6.6875,14.90625 L6.6875,14.90625 Z"></path>
</svg>
