<?xml version="1.0" encoding="utf-8"?>
<!-- Generator: Adobe Illustrator 24.2.0, SVG Export Plug-In . SVG Version: 6.00 Build 0)  -->
<svg version="1.1" id="Layer_1" xmlns="http://www.w3.org/2000/svg" xmlns:xlink="http://www.w3.org/1999/xlink" x="0px" y="0px"
	 viewBox="0 0 119.3 135.1" style="enable-background:new 0 0 119.3 135.1;" xml:space="preserve">
<style type="text/css">
	.st0{fill:#15C0E8;enable-background:new    ;}
	.st1{fill:#A232D6;}
</style>
<g>
	<polygon class="st0" points="49.3,78.4 37.8,95.7 58.7,129.7 117.1,34 93.5,34 58.7,92.5 	"/>
	<path class="st1" d="M92.1,32.1c0,0-7.6-15.6-12.1-20.2c-0.6-0.7-5.9-4.9-13.2-2.4c-2.1,0.7-8.4,4.2-19.6,22.8
		c-0.9,1.4-8.4,14.8-8.4,14.8s-2.9,6.9-6.4,0c-1.4-2.3-7-13.2-7-13.2H2.2l31.9,57.4l37.6-59C71.7,32.5,79.4,18.9,92.1,32.1z"/>
</g>
</svg>
